<?xml version="1.0" encoding="UTF-8" standalone="no"?>
<!-- Created with Inkscape (http://www.inkscape.org/) -->

<svg
   xmlns:dc="http://purl.org/dc/elements/1.1/"
   xmlns:cc="http://creativecommons.org/ns#"
   xmlns:rdf="http://www.w3.org/1999/02/22-rdf-syntax-ns#"
   xmlns:svg="http://www.w3.org/2000/svg"
   xmlns="http://www.w3.org/2000/svg"
   xmlns:sodipodi="http://sodipodi.sourceforge.net/DTD/sodipodi-0.dtd"
   xmlns:inkscape="http://www.inkscape.org/namespaces/inkscape"
   width="1052.3622"
   height="744.09448"
   id="svg2"
   version="1.1"
   inkscape:version="0.47 r22583"
   sodipodi:docname="New document 1">
  <defs
     id="defs4">
    <inkscape:perspective
       sodipodi:type="inkscape:persp3d"
       inkscape:vp_x="0 : 526.18109 : 1"
       inkscape:vp_y="0 : 1000 : 0"
       inkscape:vp_z="744.09448 : 526.18109 : 1"
       inkscape:persp3d-origin="372.04724 : 350.78739 : 1"
       id="perspective10" />
    <inkscape:perspective
       id="perspective2826"
       inkscape:persp3d-origin="0.5 : 0.33333333 : 1"
       inkscape:vp_z="1 : 0.5 : 1"
       inkscape:vp_y="0 : 1000 : 0"
       inkscape:vp_x="0 : 0.5 : 1"
       sodipodi:type="inkscape:persp3d" />
    <inkscape:perspective
       id="perspective2848"
       inkscape:persp3d-origin="0.5 : 0.33333333 : 1"
       inkscape:vp_z="1 : 0.5 : 1"
       inkscape:vp_y="0 : 1000 : 0"
       inkscape:vp_x="0 : 0.5 : 1"
       sodipodi:type="inkscape:persp3d" />
    <inkscape:perspective
       id="perspective2870"
       inkscape:persp3d-origin="0.5 : 0.33333333 : 1"
       inkscape:vp_z="1 : 0.5 : 1"
       inkscape:vp_y="0 : 1000 : 0"
       inkscape:vp_x="0 : 0.5 : 1"
       sodipodi:type="inkscape:persp3d" />
    <inkscape:perspective
       id="perspective2893"
       inkscape:persp3d-origin="0.5 : 0.33333333 : 1"
       inkscape:vp_z="1 : 0.5 : 1"
       inkscape:vp_y="0 : 1000 : 0"
       inkscape:vp_x="0 : 0.5 : 1"
       sodipodi:type="inkscape:persp3d" />
    <inkscape:perspective
       id="perspective2916"
       inkscape:persp3d-origin="0.5 : 0.33333333 : 1"
       inkscape:vp_z="1 : 0.5 : 1"
       inkscape:vp_y="0 : 1000 : 0"
       inkscape:vp_x="0 : 0.5 : 1"
       sodipodi:type="inkscape:persp3d" />
    <inkscape:perspective
       id="perspective2938"
       inkscape:persp3d-origin="0.5 : 0.33333333 : 1"
       inkscape:vp_z="1 : 0.5 : 1"
       inkscape:vp_y="0 : 1000 : 0"
       inkscape:vp_x="0 : 0.5 : 1"
       sodipodi:type="inkscape:persp3d" />
    <inkscape:perspective
       id="perspective2960"
       inkscape:persp3d-origin="0.5 : 0.33333333 : 1"
       inkscape:vp_z="1 : 0.5 : 1"
       inkscape:vp_y="0 : 1000 : 0"
       inkscape:vp_x="0 : 0.5 : 1"
       sodipodi:type="inkscape:persp3d" />
    <inkscape:perspective
       id="perspective2982"
       inkscape:persp3d-origin="0.5 : 0.33333333 : 1"
       inkscape:vp_z="1 : 0.5 : 1"
       inkscape:vp_y="0 : 1000 : 0"
       inkscape:vp_x="0 : 0.5 : 1"
       sodipodi:type="inkscape:persp3d" />
    <inkscape:perspective
       id="perspective2982-2"
       inkscape:persp3d-origin="0.5 : 0.33333333 : 1"
       inkscape:vp_z="1 : 0.5 : 1"
       inkscape:vp_y="0 : 1000 : 0"
       inkscape:vp_x="0 : 0.5 : 1"
       sodipodi:type="inkscape:persp3d" />
    <inkscape:perspective
       id="perspective3013"
       inkscape:persp3d-origin="0.5 : 0.33333333 : 1"
       inkscape:vp_z="1 : 0.5 : 1"
       inkscape:vp_y="0 : 1000 : 0"
       inkscape:vp_x="0 : 0.5 : 1"
       sodipodi:type="inkscape:persp3d" />
    <inkscape:perspective
       id="perspective3035"
       inkscape:persp3d-origin="0.5 : 0.33333333 : 1"
       inkscape:vp_z="1 : 0.5 : 1"
       inkscape:vp_y="0 : 1000 : 0"
       inkscape:vp_x="0 : 0.5 : 1"
       sodipodi:type="inkscape:persp3d" />
    <inkscape:perspective
       id="perspective3057"
       inkscape:persp3d-origin="0.5 : 0.33333333 : 1"
       inkscape:vp_z="1 : 0.5 : 1"
       inkscape:vp_y="0 : 1000 : 0"
       inkscape:vp_x="0 : 0.5 : 1"
       sodipodi:type="inkscape:persp3d" />
    <inkscape:perspective
       id="perspective3079"
       inkscape:persp3d-origin="0.5 : 0.33333333 : 1"
       inkscape:vp_z="1 : 0.5 : 1"
       inkscape:vp_y="0 : 1000 : 0"
       inkscape:vp_x="0 : 0.5 : 1"
       sodipodi:type="inkscape:persp3d" />
    <inkscape:perspective
       id="perspective3101"
       inkscape:persp3d-origin="0.5 : 0.33333333 : 1"
       inkscape:vp_z="1 : 0.5 : 1"
       inkscape:vp_y="0 : 1000 : 0"
       inkscape:vp_x="0 : 0.5 : 1"
       sodipodi:type="inkscape:persp3d" />
  </defs>
  <sodipodi:namedview
     id="base"
     pagecolor="#ffffff"
     bordercolor="#666666"
     borderopacity="1.0"
     inkscape:pageopacity="0.0"
     inkscape:pageshadow="2"
     inkscape:zoom="0.72788629"
     inkscape:cx="526.18109"
     inkscape:cy="372.04724"
     inkscape:document-units="px"
     inkscape:current-layer="layer1"
     showgrid="false"
     inkscape:window-width="871"
     inkscape:window-height="913"
     inkscape:window-x="0"
     inkscape:window-y="48"
     inkscape:window-maximized="0" />
  <metadata
     id="metadata7">
    <rdf:RDF>
      <cc:Work
         rdf:about="">
        <dc:format>image/svg+xml</dc:format>
        <dc:type
           rdf:resource="http://purl.org/dc/dcmitype/StillImage" />
        <dc:title></dc:title>
      </cc:Work>
    </rdf:RDF>
  </metadata>
  <g
     inkscape:label="Layer 1"
     inkscape:groupmode="layer"
     id="layer1"
     transform="translate(0,-308.2677)">
    <path
       style="fill:#ff8624;fill-opacity:1"
       d="m 241.79173,480.86832 c -100.72576,0 -187.517105,59.55281 -227.125005,145.375 40.81992,-39.00865 96.142595,-62.96875 157.062505,-62.96875 78.04734,0 146.89683,39.33324 187.84375,99.25 -34.02878,-32.25684 -80.00264,-52.0625 -130.59375,-52.0625 -76.48174,0 -142.394215,45.20964 -172.468755,110.375 30.99484,-29.61952 73.024365,-47.8125 119.281255,-47.8125 95.34871,0 172.625,77.30755 172.625,172.65625 0,56.11047 -26.75633,105.96649 -68.21875,137.5 11.37629,-3.17812 22.31275,-7.39457 32.71875,-12.53125 103.44376,-30.63851 178.90625,-126.36728 178.90625,-239.75 0,-138.09276 -111.93849,-250.03125 -250.03125,-250.03125 z"
       id="path2816" />
    <path
       sodipodi:type="arc"
       style="fill:#ff8624;fill-opacity:1"
       id="path2816-8"
       sodipodi:cx="513.12958"
       sodipodi:cy="406.81653"
       sodipodi:rx="217.7538"
       sodipodi:ry="217.7538"
       d="m 730.88338,406.81653 a 217.7538,217.7538 0 1 1 -435.5076,0 217.7538,217.7538 0 1 1 435.5076,0 z"
       transform="matrix(0.67192432,0,0,0.67192432,-251.36306,142.23698)" />
    <path
       sodipodi:type="arc"
       style="fill:#ff8624;fill-opacity:1"
       id="path2816-4"
       sodipodi:cx="513.12958"
       sodipodi:cy="406.81653"
       sodipodi:rx="217.7538"
       sodipodi:ry="217.7538"
       d="m 730.88338,406.81653 a 217.7538,217.7538 0 1 1 -435.5076,0 217.7538,217.7538 0 1 1 435.5076,0 z"
       transform="matrix(1.148265,0,0,1.148265,-216.89783,2.7204246)" />
    <path
       style="fill:#ff8624;fill-opacity:1"
       d="m 809.05255,502.78362 c -30.971,-29.34012 -75.00444,-36.31013 -112.18196,-21.459 23.914,-0.10395 47.90382,8.6436 66.63538,26.38879 23.99785,22.73422 33.7103,54.88332 28.8476,85.23375 -1.0671,-19.83044 -9.43393,-39.31185 -24.9896,-54.04839 -23.51648,-22.27816 -56.95213,-27.57665 -85.18123,-16.30003 18.15801,-0.079 36.38057,6.56975 50.60356,20.04379 29.31766,27.77387 30.55975,74.05387 2.78587,103.37153 -16.34426,17.25276 -39.09369,24.78862 -61.02779,22.40702 4.42371,2.33657 9.01465,4.22573 13.71051,5.67745 40.73133,20.71118 91.81897,13.25793 124.84592,-21.6048 40.22467,-42.46053 38.41226,-109.48545 -4.04826,-149.71011 z"
       id="path2816-9" />
    <path
       style="fill:#ff8624;fill-opacity:1"
       d="m 159.33672,716.88193 c -50.27909,5.73119 -90.214102,40.39635 -105.101961,85.48966 18.156479,-21.79446 44.408489,-36.90238 74.817771,-40.36866 38.95876,-4.44073 75.56424,11.27574 99.41282,38.85445 -18.82146,-14.1654 -42.89706,-21.43591 -68.15053,-18.55734 -38.17725,4.35169 -68.506302,30.66922 -79.810742,64.90889 13.78634,-16.54868 33.730982,-28.02145 56.820942,-30.6534 47.59504,-5.4252 90.5676,28.76736 95.99279,76.3624 3.19261,28.00856 -7.32657,54.4175 -26.22909,72.51719 5.49786,-2.23372 10.71708,-4.96073 15.61915,-8.11689 49.89256,-21.17956 82.1142,-73.258 75.6629,-129.85505 -7.85727,-68.93152 -70.10253,-118.4385 -139.03405,-110.58125 z"
       id="path2816-9-6" />
    <path
       sodipodi:type="arc"
       style="fill:#ff8624;fill-opacity:1"
       id="path2816-8-1"
       sodipodi:cx="513.12958"
       sodipodi:cy="406.81653"
       sodipodi:rx="217.7538"
       sodipodi:ry="217.7538"
       d="m 730.88338,406.81653 a 217.7538,217.7538 0 1 1 -435.5076,0 217.7538,217.7538 0 1 1 435.5076,0 z"
       transform="matrix(0.4195584,0,0,0.4195584,422.17438,189.26304)" />
    <path
       sodipodi:type="arc"
       style="fill:#ff8624;fill-opacity:1"
       id="path2816-8-1-1"
       sodipodi:cx="513.12958"
       sodipodi:cy="406.81653"
       sodipodi:rx="217.7538"
       sodipodi:ry="217.7538"
       d="m 730.88338,406.81653 a 217.7538,217.7538 0 1 1 -435.5076,0 217.7538,217.7538 0 1 1 435.5076,0 z"
       transform="matrix(0.29968459,0,0,0.29968459,633.43385,332.82472)" />
    <path
       sodipodi:type="arc"
       style="fill:#ff8624;fill-opacity:1"
       id="path2816-8-1-1-5"
       sodipodi:cx="513.12958"
       sodipodi:cy="406.81653"
       sodipodi:rx="217.7538"
       sodipodi:ry="217.7538"
       d="m 730.88338,406.81653 a 217.7538,217.7538 0 1 1 -435.5076,0 217.7538,217.7538 0 1 1 435.5076,0 z"
       transform="matrix(0.29968459,0,0,0.29968459,575.73253,277.87108)" />
    <path
       style="fill:#ff8624;fill-opacity:1"
       d="m 574.87656,962.24883 c 64.86163,10.2619 126.81752,-19.2444 161.06631,-70.47369 -30.2599,20.96059 -68.32558,30.75329 -107.55452,24.54679 -50.25802,-7.95151 -90.58588,-40.29425 -110.84904,-83.04888 18.62626,24.23841 46.213,41.67594 78.79078,46.83015 49.24986,7.79196 96.29967,-14.60529 122.305,-53.50406 -22.97654,15.91552 -51.89464,23.34879 -81.68143,18.63614 -61.39911,-9.71413 -103.28453,-67.36867 -93.5704,-128.76777 5.71653,-36.13194 28.02541,-65.51043 57.93747,-81.59202 -7.64947,0.88751 -15.1215,2.48849 -22.34569,4.73606 -69.73332,9.19059 -128.07968,63.14631 -139.63111,136.15829 -14.06889,88.92383 46.6088,172.41009 135.53263,186.47899 z"
       id="path2816-9-9" />
    <path
       sodipodi:type="arc"
       style="fill:#ff8624;fill-opacity:1"
       id="path2816-4-9"
       sodipodi:cx="513.12958"
       sodipodi:cy="406.81653"
       sodipodi:rx="217.7538"
       sodipodi:ry="217.7538"
       d="m 730.88338,406.81653 a 217.7538,217.7538 0 1 1 -435.5076,0 217.7538,217.7538 0 1 1 435.5076,0 z"
       transform="matrix(0.57413252,0,0,0.57413252,645.10285,116.76285)" />
    <path
       sodipodi:type="arc"
       style="fill:#ff8624;fill-opacity:1"
       id="path2816-8-1-14"
       sodipodi:cx="513.12958"
       sodipodi:cy="406.81653"
       sodipodi:rx="217.7538"
       sodipodi:ry="217.7538"
       d="m 730.88338,406.81653 a 217.7538,217.7538 0 1 1 -435.5076,0 217.7538,217.7538 0 1 1 435.5076,0 z"
       transform="matrix(0.4195584,0,0,0.4195584,541.69855,181.02)" />
    <path
       style="fill:#ff8624;fill-opacity:1"
       d="m 1027.5398,515.36146 c -30.89216,-42.26065 -82.49671,-60.4104 -130.65199,-50.7072 28.88583,5.16277 55.9058,21.02557 74.58965,46.58522 23.93671,32.74569 28.54984,73.6956 15.96924,109.25155 3.09728,-24.17019 -2.69298,-49.53337 -18.20904,-70.75944 -23.45658,-32.08881 -62.63983,-45.87759 -99.20442,-38.50979 21.93315,3.92006 42.45649,15.97434 56.64325,35.38195 29.24298,40.00467 20.50798,96.13668 -19.4967,125.37966 -23.54179,17.20882 -52.66552,21.27348 -78.61208,13.54862 4.82247,3.79834 9.94571,7.09367 15.29233,9.88424 44.58044,34.00435 107.88852,36.30597 155.45961,1.53206 57.93835,-42.35238 70.57245,-123.64847 28.22015,-181.58687 z"
       id="path2816-9-91" />
  </g>
</svg>
